<svg xmlns="http://www.w3.org/2000/svg" width="392" height="292" viewBox="0 0 392 292">
<g>
<path d="M 142.00 1.00 L 142.00 142.00 L 1.00 142.00 L 1.00 1.00 ZM 13.00 13.00 L 13.00 130.00 L 130.00 130.00 L 130.00 13.00 ZM 196.00 102.80 L 196.00 142.00 L 166.00 142.00 L 166.00 2.00 L 191.57 2.00 L 206.63 25.75 C214.91,38.81 226.15,56.59 231.60,65.25 C237.04,73.91 241.84,80.99 242.25,81.00 C242.66,81.00 243.00,63.21 243.00,41.47 L 243.00 1.95 L 257.75 2.22 L 272.50 2.50 L 272.50 141.50 L 259.75 141.78 L 247.00 142.06 L 239.43 130.28 C235.27,123.80 224.23,106.58 214.88,92.00 C205.54,77.43 197.47,65.07 196.95,64.55 C196.35,63.95 196.00,78.02 196.00,102.80 ZM 321.78 267.00 L 321.50 292.00 L 292.50 292.00 L 292.24 221.95 L 291.97 151.90 L 326.29 152.20 L 360.61 152.50 L 368.24 156.27 C380.34,162.25 387.31,171.64 390.47,186.21 C391.67,191.69 391.85,180.15 391.92,96.25 L 392.00 0.00 L 392.00 292.00 L 391.88 245.75 C391.80,215.38 391.46,201.56 390.89,205.50 C389.65,214.13 384.06,224.86 377.93,230.38 C367.82,239.46 358.74,242.00 336.35,242.00 L 322.07 242.00 ZM 88.94 109.96 C64.06,121.43 34.94,105.85 29.82,78.33 C26.65,61.25 36.57,41.77 52.42,33.97 C78.52,21.11 108.28,36.25 113.19,64.88 C116.32,83.13 106.15,102.02 88.94,109.96 ZM 322.00 181.00 L 322.00 213.00 L 335.97 213.00 C352.32,213.00 356.01,211.85 359.10,205.81 C362.86,198.44 360.57,184.98 355.06,182.03 C353.97,181.45 346.37,181.00 337.57,181.00 Z" fill="rgb(36,81,56)"/>
<path d="M 0.00 0.00 L 142.00 0.00 L 142.00 1.00 L 1.00 1.00 L 1.00 142.00 L 0.50 142.00 L 0.50 292.00 L 146.50 292.00 L 0.00 292.00 ZM 107.32 289.25 C112.88,289.29 115.51,289.34 115.51,289.37 C115.51,289.46 99.33,289.53 71.50,289.53 C43.85,289.53 27.85,289.46 27.85,289.37 C27.85,289.34 30.57,289.29 36.32,289.25 C56.03,289.10 87.98,289.10 107.32,289.25 Z" fill="rgb(178,159,151)"/>
<path d="M 71.00 289.76 C20.53,289.58 3.48,289.72 0.50,290.47 L 0.50 148.00 L 142.00 148.00 L 142.00 290.03 ZM 13.67 277.33 C14.03,277.70 40.36,278.00 72.17,278.00 L 130.00 278.00 L 130.00 160.00 L 13.00 160.00 L 13.00 218.33 C13.00,250.42 13.30,276.97 13.67,277.33 ZM 355.29 140.99 C347.76,143.32 333.30,143.60 326.00,141.57 C309.06,136.85 296.07,123.28 291.53,105.54 C289.32,96.94 289.33,47.04 291.53,38.46 C297.45,15.44 316.13,1.00 340.00,1.00 C354.59,1.00 365.56,5.51 375.66,15.65 C382.36,22.38 386.79,30.42 389.42,40.64 C389.60,41.35 389.77,42.00 389.93,42.61 C390.93,46.37 391.48,48.46 390.68,49.61 C389.66,51.06 386.47,51.00 379.25,50.84 C378.32,50.82 377.33,50.80 376.26,50.78 L 361.52 50.50 L 359.64 45.27 C357.36,38.91 350.93,32.60 345.15,31.04 C334.67,28.22 324.08,34.59 321.10,45.50 C319.65,50.81 319.65,92.74 321.10,98.50 C324.26,111.04 338.52,117.44 350.04,111.48 C353.81,109.53 358.68,102.88 360.04,97.85 L 361.08 94.00 L 391.18 94.00 L 390.48 98.25 C387.10,119.10 373.77,135.28 355.29,140.99 ZM 166.50 292.00 L 166.24 222.00 L 165.97 152.00 L 259.05 152.00 L 258.78 166.25 L 258.50 180.50 L 227.22 180.76 L 195.94 181.03 L 196.22 194.76 L 196.50 208.50 L 222.78 208.77 L 249.05 209.03 L 248.78 223.27 L 248.50 237.50 L 196.00 238.03 L 196.00 292.00 L 166.50 292.00 ZM 80.89 259.94 C74.39,261.44 66.21,261.12 59.99,259.13 C28.73,249.12 18.99,211.81 41.72,189.14 C66.18,164.73 107.34,177.76 113.17,211.76 C116.88,233.42 102.44,254.97 80.89,259.94 ZM 107.32 289.25 C87.98,289.10 56.03,289.10 36.32,289.25 C30.57,289.29 27.85,289.34 27.85,289.37 C27.85,289.46 43.85,289.53 71.50,289.53 C99.33,289.53 115.51,289.46 115.51,289.37 C115.51,289.34 112.88,289.29 107.32,289.25 ZM 0.50 291.01 C3.68,291.77 22.78,291.99 79.53,292.00 L 0.50 292.00 ZM 0.50 142.00 L 1.00 142.00 L 1.00 142.00 Z" fill="rgb(127,38,33)"/>
<path d="M -0.00 290.75 C-0.00,289.76 14.73,289.55 71.00,289.76 L 142.00 290.03 L 142.00 219.01 L 142.00 148.00 L 71.00 148.00 L 0.00 148.00 L 0.00 145.00 L 0.00 142.00 L 71.00 142.00 L 142.00 142.00 L 142.00 71.00 L 142.00 0.00 L 267.00 0.00 L 392.00 0.00 L 391.92 96.25 C391.85,180.15 391.67,191.69 390.47,186.21 C387.31,171.64 380.34,162.25 368.24,156.27 L 360.61 152.50 L 326.29 152.20 L 291.97 151.90 L 292.24 221.95 L 292.50 292.00 L 244.25 292.00 L 196.00 292.00 L 196.00 265.02 L 196.00 238.03 L 222.25 237.77 L 248.50 237.50 L 248.78 223.27 L 249.05 209.03 L 222.78 208.77 L 196.50 208.50 L 196.22 194.76 L 195.94 181.03 L 227.22 180.76 L 258.50 180.50 L 258.78 166.25 L 259.05 152.00 L 212.51 152.00 L 165.97 152.00 L 166.24 222.00 L 166.50 292.00 L 83.25 292.00 C17.32,292.00 -0.00,291.74 -0.00,290.75 ZM 355.29 140.99 C373.77,135.28 387.10,119.10 390.48,98.25 L 391.18 94.00 L 376.13 94.00 L 361.08 94.00 L 360.04 97.85 C358.68,102.88 353.81,109.53 350.04,111.48 C338.52,117.44 324.26,111.04 321.10,98.50 C319.65,92.74 319.65,50.81 321.10,45.50 C324.08,34.59 334.67,28.22 345.15,31.04 C350.93,32.60 357.36,38.91 359.64,45.27 L 361.52 50.50 L 376.26 50.78 C393.23,51.10 392.29,51.82 389.42,40.64 C386.79,30.42 382.36,22.38 375.66,15.65 C365.56,5.51 354.59,1.00 340.00,1.00 C316.13,1.00 297.45,15.44 291.53,38.46 C289.33,47.04 289.32,96.94 291.53,105.54 C296.07,123.28 309.06,136.85 326.00,141.57 C333.30,143.60 347.76,143.32 355.29,140.99 ZM 196.00 102.80 C196.00,78.02 196.35,63.95 196.95,64.55 C197.47,65.07 205.54,77.43 214.88,92.00 C224.23,106.58 235.27,123.80 239.43,130.28 L 247.00 142.06 L 259.75 141.78 L 272.50 141.50 L 272.50 72.00 L 272.50 2.50 L 257.75 2.22 L 243.00 1.95 L 243.00 41.47 C243.00,63.21 242.66,81.00 242.25,81.00 C241.84,80.99 237.04,73.91 231.60,65.25 C226.15,56.59 214.91,38.81 206.63,25.75 L 191.57 2.00 L 178.78 2.00 L 166.00 2.00 L 166.00 72.00 L 166.00 142.00 L 181.00 142.00 L 196.00 142.00 L 196.00 102.80 ZM 321.78 267.00 L 322.07 242.00 L 336.35 242.00 C358.74,242.00 367.82,239.46 377.93,230.38 C384.06,224.86 389.65,214.13 390.89,205.50 C391.46,201.56 391.80,215.38 391.88,245.75 L 392.00 292.00 L 356.75 292.00 L 321.50 292.00 L 321.78 267.00 ZM 13.67 277.33 C13.30,276.97 13.00,250.42 13.00,218.33 L 13.00 160.00 L 71.50 160.00 L 130.00 160.00 L 130.00 219.00 L 130.00 278.00 L 72.17 278.00 C40.36,278.00 14.03,277.70 13.67,277.33 ZM 80.89 259.94 C102.44,254.97 116.88,233.42 113.17,211.76 C107.34,177.76 66.18,164.73 41.72,189.14 C18.99,211.81 28.73,249.12 59.99,259.13 C66.21,261.12 74.39,261.44 80.89,259.94 ZM 322.00 197.00 L 322.00 181.00 L 337.57 181.00 C346.37,181.00 353.97,181.45 355.06,182.03 C360.57,184.98 362.86,198.44 359.10,205.81 C356.01,211.85 352.32,213.00 335.97,213.00 L 322.00 213.00 L 322.00 197.00 ZM 13.00 71.50 L 13.00 13.00 L 71.50 13.00 L 130.00 13.00 L 130.00 71.50 L 130.00 130.00 L 71.50 130.00 L 13.00 130.00 L 13.00 71.50 ZM 88.94 109.96 C106.15,102.02 116.32,83.13 113.19,64.88 C108.28,36.25 78.52,21.11 52.42,33.97 C36.57,41.77 26.65,61.25 29.82,78.33 C34.94,105.85 64.06,121.43 88.94,109.96 Z" fill="rgb(253,253,253)"/>
</g>
</svg>